# xmcd CD database file
#
# Track frame offsets:
#	150
#	18533
#	39906
#	53677
#	66889
#	80777
#	95185
#	110831
#	134398
#	145929
#	169199
#	183687
#	201118
#	223533
#	238539
#	250585
#
# Disc length: 3646 seconds
#
# Revision: 0
# Processed by: cddbd v1.4PL0 Copyright (c) Steve Scherf et al.
# Submitted via: CDex 1.50
#
DISCID=ed0e3c10
DTITLE=Rev. Gary Davis - Heroes Of The Blues: The Very Best Of Rev. Gary Davis
DYEAR=2003
DGENRE=Blues
TTITLE0=Samson and Delilah
TTITLE1=Death Don't Have No Mercy
TTITLE2=Cross and Evil Woman Blues
TTITLE3=Can't Be Satisfied
TTITLE4=Lord I Wish I Could See
TTITLE5=Twelve Gates To The City
TTITLE6=Out On The Ocean Sailing
TTITLE7=Whistlin' Blues
TTITLE8=Candy Man
TTITLE9=How Happy I Am
TTITLE10=I Belong To The Band - Hallelujah!
TTITLE11=Bad Company (Brought Me Here)
TTITLE12=Crucifixion
TTITLE13=You Got To Move
TTITLE14=Cocaine Blues
TTITLE15=Soon My Work Will Be All Done
EXTD=YEAR: 2003
EXTT0=
EXTT1=
EXTT2=
EXTT3=
EXTT4=
EXTT5=
EXTT6=
EXTT7=
EXTT8=
EXTT9=
EXTT10=
EXTT11=
EXTT12=
EXTT13=
EXTT14=
EXTT15=
PLAYORDER=
